<svg width="78" height="26" viewBox="0 0 78 26" fill="none" xmlns="http://www.w3.org/2000/svg">
<path d="M9.7 0.727999C12.364 0.727999 14.692 1.256 16.684 2.312C18.676 3.368 20.212 4.856 21.292 6.776C22.396 8.672 22.948 10.868 22.948 13.364C22.948 15.836 22.396 18.032 21.292 19.952C20.212 21.872 18.664 23.36 16.648 24.416C14.656 25.472 12.34 26 9.7 26H0.232V0.727999H9.7ZM9.304 20.672C11.632 20.672 13.444 20.036 14.74 18.764C16.036 17.492 16.684 15.692 16.684 13.364C16.684 11.036 16.036 9.224 14.74 7.928C13.444 6.632 11.632 5.984 9.304 5.984H6.388V20.672H9.304ZM48.9963 26H42.8403L32.5443 10.412V26H26.3883V0.727999H32.5443L42.8403 16.388V0.727999H48.9963V26ZM69.1906 21.536H59.7586L58.2466 26H51.8026L60.9466 0.727999H68.0746L77.2186 26H70.7026L69.1906 21.536ZM67.6066 16.784L64.4746 7.532L61.3786 16.784H67.6066Z" fill="#00FF80"/>
</svg>
