<svg width="526" height="413" viewBox="0 0 526 413" fill="none" xmlns="http://www.w3.org/2000/svg">
<path d="M223.887 181.36L225.292 178.709L225.292 178.709L223.887 181.36ZM234.127 191.28L231.512 192.751L231.523 192.77L231.535 192.79L234.127 191.28ZM234.127 220.56L231.526 219.065L231.519 219.077L231.512 219.089L234.127 220.56ZM223.807 230.48L222.415 227.823L222.409 227.826L222.402 227.829L223.807 230.48ZM187.327 234H184.327V237H187.327V234ZM187.327 177.84V174.84H184.327V177.84H187.327ZM201.007 189.52V186.52H198.007V189.52H201.007ZM201.007 222.16H198.007V225.16H201.007V222.16ZM208.367 180.84C213.886 180.84 218.56 181.932 222.482 184.011L225.292 178.709C220.361 176.095 214.688 174.84 208.367 174.84V180.84ZM222.482 184.011C226.413 186.095 229.401 188.997 231.512 192.751L236.742 189.809C234.053 185.029 230.214 181.319 225.292 178.709L222.482 184.011ZM231.535 192.79C233.686 196.484 234.807 200.829 234.807 205.92H240.807C240.807 199.917 239.475 194.502 236.72 189.77L231.535 192.79ZM234.807 205.92C234.807 210.951 233.689 215.304 231.526 219.065L236.728 222.055C239.472 217.283 240.807 211.876 240.807 205.92H234.807ZM231.512 219.089C229.407 222.833 226.399 225.736 222.415 227.823L225.199 233.137C230.175 230.531 234.048 226.82 236.742 222.031L231.512 219.089ZM222.402 227.829C218.477 229.91 213.828 231 208.367 231V237C214.64 237 220.284 235.743 225.212 233.131L222.402 227.829ZM208.367 231H187.327V237H208.367V231ZM190.327 234V177.84H184.327V234H190.327ZM187.327 180.84H208.367V174.84H187.327V180.84ZM207.487 225.16C213.215 225.16 218.082 223.582 221.669 220.061L217.466 215.779C215.293 217.912 212.106 219.16 207.487 219.16V225.16ZM221.669 220.061C225.274 216.523 226.887 211.66 226.887 205.92H220.887C220.887 210.527 219.621 213.664 217.466 215.779L221.669 220.061ZM226.887 205.92C226.887 200.177 225.273 195.303 221.689 191.719L217.446 195.961C219.621 198.137 220.887 201.316 220.887 205.92H226.887ZM221.689 191.719C218.104 188.134 213.23 186.52 207.487 186.52V192.52C212.091 192.52 215.27 193.786 217.446 195.961L221.689 191.719ZM207.487 186.52H201.007V192.52H207.487V186.52ZM198.007 189.52V222.16H204.007V189.52H198.007ZM201.007 225.16H207.487V219.16H201.007V225.16ZM287.692 234V237H290.692V234H287.692ZM274.012 234L271.509 235.653L272.398 237H274.012V234ZM251.132 199.36L253.635 197.707L248.132 189.375V199.36H251.132ZM251.132 234V237H254.132V234H251.132ZM237.452 234H234.452V237H237.452V234ZM237.452 177.84V174.84H234.452V177.84H237.452ZM251.132 177.84L253.639 176.192L252.75 174.84H251.132V177.84ZM274.012 212.64L271.505 214.288L277.012 222.664V212.64H274.012ZM274.012 177.84V174.84H271.012V177.84H274.012ZM287.692 177.84H290.692V174.84H287.692V177.84ZM287.692 231H274.012V237H287.692V231ZM276.515 232.347L253.635 197.707L248.629 201.013L271.509 235.653L276.515 232.347ZM248.132 199.36V234H254.132V199.36H248.132ZM251.132 231H237.452V237H251.132V231ZM240.452 234V177.84H234.452V234H240.452ZM237.452 180.84H251.132V174.84H237.452V180.84ZM248.625 179.488L271.505 214.288L276.519 210.992L253.639 176.192L248.625 179.488ZM277.012 212.64V177.84H271.012V212.64H277.012ZM274.012 180.84H287.692V174.84H274.012V180.84ZM284.692 177.84V234H290.692V177.84H284.692ZM324.568 224.08L327.41 223.118L326.72 221.08H324.568V224.08ZM303.608 224.08V221.08H301.457L300.767 223.118L303.608 224.08ZM300.248 234V237H302.4L303.09 234.962L300.248 234ZM285.928 234L283.107 232.979L281.653 237H285.928V234ZM306.248 177.84V174.84H304.144L303.427 176.819L306.248 177.84ZM322.088 177.84L324.909 176.819L324.193 174.84H322.088V177.84ZM342.408 234V237H346.684L345.229 232.979L342.408 234ZM327.928 234L325.087 234.962L325.777 237H327.928V234ZM321.048 213.52V216.52H325.231L323.89 212.558L321.048 213.52ZM314.088 192.96L316.93 191.998L314.072 183.555L311.243 192.008L314.088 192.96ZM307.208 213.52L304.363 212.568L303.041 216.52H307.208V213.52ZM324.568 221.08H303.608V227.08H324.568V221.08ZM300.767 223.118L297.407 233.038L303.09 234.962L306.45 225.042L300.767 223.118ZM300.248 231H285.928V237H300.248V231ZM288.749 235.021L309.069 178.861L303.427 176.819L283.107 232.979L288.749 235.021ZM306.248 180.84H322.088V174.84H306.248V180.84ZM319.267 178.861L339.587 235.021L345.229 232.979L324.909 176.819L319.267 178.861ZM342.408 231H327.928V237H342.408V231ZM330.77 233.038L327.41 223.118L321.727 225.042L325.087 234.962L330.77 233.038ZM323.89 212.558L316.93 191.998L311.247 193.922L318.207 214.482L323.89 212.558ZM311.243 192.008L304.363 212.568L310.053 214.472L316.933 193.912L311.243 192.008ZM307.208 216.52H321.048V210.52H307.208V216.52Z" fill="#00FF80"/>
<rect x="1.5" y="1.5" width="523" height="410" rx="23.5" stroke="#00FF80" stroke-width="3"/>
<rect x="21.5" y="21.5" width="483" height="370" rx="23.5" stroke="#00FF80" stroke-width="3"/>
<line x1="20" y1="59" x2="506" y2="59" stroke="#00FF80" stroke-width="2"/>
<circle cx="476" cy="40" r="9" stroke="#00FF80" stroke-width="2"/>
<circle cx="446" cy="40" r="9" stroke="#00FF80" stroke-width="2"/>
<circle cx="416" cy="40" r="9" stroke="#00FF80" stroke-width="2"/>
</svg>
